{"asset":{"version":"2.0","generator":"Build a Living Cell original voxel prefab generator"},"extensionsUsed":["KHR_materials_unlit"],"scene":0,"scenes":[{"nodes":[0]}],"nodes":[{"name":"CellPrefab_centralVacuole","children":[1]},{"name":"LargeCentralVacuole","mesh":0,"translation":[0,2.32,0],"scale":[2.55,3.5,2.55]}],"meshes":[{"name":"VoxelPart_LargeCentralVacuole","primitives":[{"attributes":{"POSITION":0,"NORMAL":1},"indices":2,"material":0}]}],"materials":[{"name":"blue","extensions":{"KHR_materials_unlit":{}},"pbrMetallicRoughness":{"baseColorFactor":[0.33,0.71,0.81,0.58],"metallicFactor":0,"roughnessFactor":0.92},"alphaMode":"BLEND","doubleSided":true}],"buffers":[{"byteLength":648,"uri":"data:application/octet-stream;base64,"}],"bufferViews":[{"buffer":0,"byteOffset":0,"byteLength":288,"target":34962},{"buffer":0,"byteOffset":288,"byteLength":288,"target":34962},{"buffer":0,"byteOffset":576,"byteLength":72,"target":34963}],"accessors":[{"bufferView":0,"componentType":5126,"count":24,"type":"VEC3","min":[-0.5,-0.5,-0.5],"max":[0.5,0.5,0.5]},{"bufferView":1,"componentType":5126,"count":24,"type":"VEC3"},{"bufferView":2,"componentType":5123,"count":36,"type":"SCALAR"}],"extras":{"classroomScope":"Unit 1 plant-cell model","originalAsset":true,"structureId":"centralVacuole"}}
