{"asset":{"version":"2.0","generator":"Build a Living Cell original voxel prefab generator"},"scene":0,"scenes":[{"nodes":[0]}],"nodes":[{"name":"CellPrefab_chloroplasts","children":[1,2,3,4,5,6,7,8,9,10,11]},{"name":"ChloroplastLowerLens","mesh":0,"translation":[0,1.2,0],"scale":[1.75,0.4,1.2]},{"name":"ChloroplastUpperLens","mesh":1,"translation":[0,1.58,0],"scale":[1.45,0.34,1.45]},{"name":"Granum_0","mesh":2,"translation":[-0.5,1.74,0],"scale":[0.32,0.09,0.46]},{"name":"Granum_1","mesh":3,"translation":[0,1.74,0],"scale":[0.32,0.09,0.46]},{"name":"Granum_2","mesh":4,"translation":[0.5,1.74,0],"scale":[0.32,0.09,0.46]},{"name":"Granum_3","mesh":5,"translation":[-0.5,1.87,0],"scale":[0.32,0.09,0.46]},{"name":"Granum_4","mesh":6,"translation":[0,1.87,0],"scale":[0.32,0.09,0.46]},{"name":"Granum_5","mesh":7,"translation":[0.5,1.87,0],"scale":[0.32,0.09,0.46]},{"name":"Granum_6","mesh":8,"translation":[-0.5,2,0],"scale":[0.32,0.09,0.46]},{"name":"Granum_7","mesh":9,"translation":[0,2,0],"scale":[0.32,0.09,0.46]},{"name":"Granum_8","mesh":10,"translation":[0.5,2,0],"scale":[0.32,0.09,0.46]}],"meshes":[{"name":"VoxelPart_ChloroplastLowerLens","primitives":[{"attributes":{"POSITION":0,"NORMAL":1},"indices":2,"material":0}]},{"name":"VoxelPart_ChloroplastUpperLens","primitives":[{"attributes":{"POSITION":0,"NORMAL":1},"indices":2,"material":0}]},{"name":"VoxelPart_Granum_0","primitives":[{"attributes":{"POSITION":0,"NORMAL":1},"indices":2,"material":1}]},{"name":"VoxelPart_Granum_1","primitives":[{"attributes":{"POSITION":0,"NORMAL":1},"indices":2,"material":1}]},{"name":"VoxelPart_Granum_2","primitives":[{"attributes":{"POSITION":0,"NORMAL":1},"indices":2,"material":1}]},{"name":"VoxelPart_Granum_3","primitives":[{"attributes":{"POSITION":0,"NORMAL":1},"indices":2,"material":1}]},{"name":"VoxelPart_Granum_4","primitives":[{"attributes":{"POSITION":0,"NORMAL":1},"indices":2,"material":1}]},{"name":"VoxelPart_Granum_5","primitives":[{"attributes":{"POSITION":0,"NORMAL":1},"indices":2,"material":1}]},{"name":"VoxelPart_Granum_6","primitives":[{"attributes":{"POSITION":0,"NORMAL":1},"indices":2,"material":1}]},{"name":"VoxelPart_Granum_7","primitives":[{"attributes":{"POSITION":0,"NORMAL":1},"indices":2,"material":1}]},{"name":"VoxelPart_Granum_8","primitives":[{"attributes":{"POSITION":0,"NORMAL":1},"indices":2,"material":1}]}],"materials":[{"name":"green","pbrMetallicRoughness":{"baseColorFactor":[0.31,0.6,0.3,1],"metallicFactor":0,"roughnessFactor":0.92}},{"name":"lime","pbrMetallicRoughness":{"baseColorFactor":[0.77,0.93,0.4,1],"metallicFactor":0,"roughnessFactor":0.92}}],"buffers":[{"byteLength":648,"uri":"data:application/octet-stream;base64,"}],"bufferViews":[{"buffer":0,"byteOffset":0,"byteLength":288,"target":34962},{"buffer":0,"byteOffset":288,"byteLength":288,"target":34962},{"buffer":0,"byteOffset":576,"byteLength":72,"target":34963}],"accessors":[{"bufferView":0,"componentType":5126,"count":24,"type":"VEC3","min":[-0.5,-0.5,-0.5],"max":[0.5,0.5,0.5]},{"bufferView":1,"componentType":5126,"count":24,"type":"VEC3"},{"bufferView":2,"componentType":5123,"count":36,"type":"SCALAR"}],"extras":{"classroomScope":"Unit 1 plant-cell model","originalAsset":true,"structureId":"chloroplasts"}}
