{"asset":{"version":"2.0","generator":"Build a Living Cell original voxel prefab generator"},"scene":0,"scenes":[{"nodes":[0]}],"nodes":[{"name":"CellPrefab_mitochondria","children":[1,2,3,4,5,6,7]},{"name":"MitoCenter","mesh":0,"translation":[0,1.45,0],"scale":[1.22,1.02,1.15]},{"name":"MitoLeftLobe","mesh":1,"translation":[-0.7,1.35,0.08],"scale":[0.66,0.86,1.02]},{"name":"MitoRightLobe","mesh":2,"translation":[0.7,1.52,-0.08],"scale":[0.7,1.15,0.94]},{"name":"Crista_0","mesh":3,"translation":[-0.63,1.44,0],"scale":[0.4,0.14,1.2]},{"name":"Crista_1","mesh":4,"translation":[-0.21,1.6199999999999999,0],"scale":[0.4,0.14,1.2]},{"name":"Crista_2","mesh":5,"translation":[0.21,1.44,0],"scale":[0.4,0.14,1.2]},{"name":"Crista_3","mesh":6,"translation":[0.63,1.6199999999999999,0],"scale":[0.4,0.14,1.2]}],"meshes":[{"name":"VoxelPart_MitoCenter","primitives":[{"attributes":{"POSITION":0,"NORMAL":1},"indices":2,"material":0}]},{"name":"VoxelPart_MitoLeftLobe","primitives":[{"attributes":{"POSITION":0,"NORMAL":1},"indices":2,"material":0}]},{"name":"VoxelPart_MitoRightLobe","primitives":[{"attributes":{"POSITION":0,"NORMAL":1},"indices":2,"material":0}]},{"name":"VoxelPart_Crista_0","primitives":[{"attributes":{"POSITION":0,"NORMAL":1},"indices":2,"material":1}]},{"name":"VoxelPart_Crista_1","primitives":[{"attributes":{"POSITION":0,"NORMAL":1},"indices":2,"material":1}]},{"name":"VoxelPart_Crista_2","primitives":[{"attributes":{"POSITION":0,"NORMAL":1},"indices":2,"material":1}]},{"name":"VoxelPart_Crista_3","primitives":[{"attributes":{"POSITION":0,"NORMAL":1},"indices":2,"material":1}]}],"materials":[{"name":"orange","pbrMetallicRoughness":{"baseColorFactor":[0.87,0.42,0.29,1],"metallicFactor":0,"roughnessFactor":0.92}},{"name":"darkOrange","pbrMetallicRoughness":{"baseColorFactor":[0.43,0.18,0.15,1],"metallicFactor":0,"roughnessFactor":0.92}}],"buffers":[{"byteLength":648,"uri":"data:application/octet-stream;base64,"}],"bufferViews":[{"buffer":0,"byteOffset":0,"byteLength":288,"target":34962},{"buffer":0,"byteOffset":288,"byteLength":288,"target":34962},{"buffer":0,"byteOffset":576,"byteLength":72,"target":34963}],"accessors":[{"bufferView":0,"componentType":5126,"count":24,"type":"VEC3","min":[-0.5,-0.5,-0.5],"max":[0.5,0.5,0.5]},{"bufferView":1,"componentType":5126,"count":24,"type":"VEC3"},{"bufferView":2,"componentType":5123,"count":36,"type":"SCALAR"}],"extras":{"classroomScope":"Unit 1 plant-cell model","originalAsset":true,"structureId":"mitochondria"}}
