{"asset":{"version":"2.0","generator":"Build a Living Cell original voxel prefab generator"},"scene":0,"scenes":[{"nodes":[0]}],"nodes":[{"name":"CellPrefab_nucleus","children":[1,2]},{"name":"NucleusCore","mesh":0,"translation":[0,1.85,0],"scale":[1.62,2.4,1.62]},{"name":"NuclearMembraneVisual","mesh":1,"translation":[0,1.85,0],"scale":[1.88,2.72,1.88]}],"meshes":[{"name":"VoxelPart_NucleusCore","primitives":[{"attributes":{"POSITION":0,"NORMAL":1},"indices":2,"material":0}]},{"name":"VoxelPart_NuclearMembraneVisual","primitives":[{"attributes":{"POSITION":0,"NORMAL":1},"indices":2,"material":1}]}],"materials":[{"name":"purple","pbrMetallicRoughness":{"baseColorFactor":[0.53,0.33,0.68,1],"metallicFactor":0,"roughnessFactor":0.92}},{"name":"membrane","pbrMetallicRoughness":{"baseColorFactor":[0.84,0.76,0.91,0.28],"metallicFactor":0,"roughnessFactor":0.92},"alphaMode":"BLEND","doubleSided":true}],"buffers":[{"byteLength":648,"uri":"data:application/octet-stream;base64,"}],"bufferViews":[{"buffer":0,"byteOffset":0,"byteLength":288,"target":34962},{"buffer":0,"byteOffset":288,"byteLength":288,"target":34962},{"buffer":0,"byteOffset":576,"byteLength":72,"target":34963}],"accessors":[{"bufferView":0,"componentType":5126,"count":24,"type":"VEC3","min":[-0.5,-0.5,-0.5],"max":[0.5,0.5,0.5]},{"bufferView":1,"componentType":5126,"count":24,"type":"VEC3"},{"bufferView":2,"componentType":5123,"count":36,"type":"SCALAR"}],"extras":{"classroomScope":"Unit 1 plant-cell model","originalAsset":true,"structureId":"nucleus"}}
