{"asset":{"version":"2.0","generator":"Build a Living Cell original voxel prefab generator"},"scene":0,"scenes":[{"nodes":[0]}],"nodes":[{"name":"CellPrefab_ribosomes","children":[1,2,3,4,5,6,7,8,9,10,11,12]},{"name":"Ribosome_0","mesh":0,"translation":[-0.63,1.15,-0.32],"scale":[0.3,0.3,0.3]},{"name":"Ribosome_1","mesh":1,"translation":[-0.21000000000000002,1.15,0],"scale":[0.3,0.3,0.3]},{"name":"Ribosome_2","mesh":2,"translation":[0.20999999999999996,1.15,0.32],"scale":[0.3,0.3,0.3]},{"name":"Ribosome_3","mesh":3,"translation":[0.63,1.15,-0.32],"scale":[0.3,0.3,0.3]},{"name":"Ribosome_4","mesh":4,"translation":[-0.63,1.5299999999999998,0],"scale":[0.3,0.3,0.3]},{"name":"Ribosome_5","mesh":5,"translation":[-0.21000000000000002,1.5299999999999998,0.32],"scale":[0.3,0.3,0.3]},{"name":"Ribosome_6","mesh":6,"translation":[0.20999999999999996,1.5299999999999998,-0.32],"scale":[0.3,0.3,0.3]},{"name":"Ribosome_7","mesh":7,"translation":[0.63,1.5299999999999998,0],"scale":[0.3,0.3,0.3]},{"name":"Ribosome_8","mesh":8,"translation":[-0.63,1.91,0.32],"scale":[0.3,0.3,0.3]},{"name":"Ribosome_9","mesh":9,"translation":[-0.21000000000000002,1.91,-0.32],"scale":[0.3,0.3,0.3]},{"name":"Ribosome_10","mesh":10,"translation":[0.20999999999999996,1.91,0],"scale":[0.3,0.3,0.3]},{"name":"Ribosome_11","mesh":11,"translation":[0.63,1.91,0.32],"scale":[0.3,0.3,0.3]}],"meshes":[{"name":"VoxelPart_Ribosome_0","primitives":[{"attributes":{"POSITION":0,"NORMAL":1},"indices":2,"material":0}]},{"name":"VoxelPart_Ribosome_1","primitives":[{"attributes":{"POSITION":0,"NORMAL":1},"indices":2,"material":0}]},{"name":"VoxelPart_Ribosome_2","primitives":[{"attributes":{"POSITION":0,"NORMAL":1},"indices":2,"material":0}]},{"name":"VoxelPart_Ribosome_3","primitives":[{"attributes":{"POSITION":0,"NORMAL":1},"indices":2,"material":0}]},{"name":"VoxelPart_Ribosome_4","primitives":[{"attributes":{"POSITION":0,"NORMAL":1},"indices":2,"material":0}]},{"name":"VoxelPart_Ribosome_5","primitives":[{"attributes":{"POSITION":0,"NORMAL":1},"indices":2,"material":0}]},{"name":"VoxelPart_Ribosome_6","primitives":[{"attributes":{"POSITION":0,"NORMAL":1},"indices":2,"material":0}]},{"name":"VoxelPart_Ribosome_7","primitives":[{"attributes":{"POSITION":0,"NORMAL":1},"indices":2,"material":0}]},{"name":"VoxelPart_Ribosome_8","primitives":[{"attributes":{"POSITION":0,"NORMAL":1},"indices":2,"material":0}]},{"name":"VoxelPart_Ribosome_9","primitives":[{"attributes":{"POSITION":0,"NORMAL":1},"indices":2,"material":0}]},{"name":"VoxelPart_Ribosome_10","primitives":[{"attributes":{"POSITION":0,"NORMAL":1},"indices":2,"material":0}]},{"name":"VoxelPart_Ribosome_11","primitives":[{"attributes":{"POSITION":0,"NORMAL":1},"indices":2,"material":0}]}],"materials":[{"name":"white","pbrMetallicRoughness":{"baseColorFactor":[0.93,0.92,0.88,1],"metallicFactor":0,"roughnessFactor":0.92}}],"buffers":[{"byteLength":648,"uri":"data:application/octet-stream;base64,"}],"bufferViews":[{"buffer":0,"byteOffset":0,"byteLength":288,"target":34962},{"buffer":0,"byteOffset":288,"byteLength":288,"target":34962},{"buffer":0,"byteOffset":576,"byteLength":72,"target":34963}],"accessors":[{"bufferView":0,"componentType":5126,"count":24,"type":"VEC3","min":[-0.5,-0.5,-0.5],"max":[0.5,0.5,0.5]},{"bufferView":1,"componentType":5126,"count":24,"type":"VEC3"},{"bufferView":2,"componentType":5123,"count":36,"type":"SCALAR"}],"extras":{"classroomScope":"Unit 1 plant-cell model","originalAsset":true,"structureId":"ribosomes"}}
